<svg width="18" height="18" fill="red" xmlns="http://www.w3.org/2000/svg">
    <path d="M18 4.18c-.07-3.35-.075-2.626-.006-3.67a.112.112 0 00-.104-.12C12.928.05 12.74.01 12.355.01 5.587.01 9.14-.102.105.434A.112.112 0 000 .552c.582 11.232.561 9.4.264 16.885a.112.112 0 00.086.114c.676.161.556.098 2.134.099l2.958-.324A2492.628 2492.628 0 009.55 18c4.77-.402 3.403-.305 6.48-.477l1.807.368c.07.014.135-.04.134-.112C17.932 14.122 18 4.18 18 4.18zm-7.335-.266l.056-.015 1.287-.291c.658-.166.756-.207 1.32-.473.26.09.974.488 1.155.716.12.15.111.184.074.346a3.927 3.927 0 00-.026.117l-.283 2.225c-.28.01-.303-.01-.38-.083-.032-.03-.072-.066-.142-.113a55.963 55.963 0 01-2.258-1.68l-.865-.699.007-.006a.123.123 0 00.023-.034c.005-.004.022-.008.032-.01zm2.004 11.203C12.644 15.092 1.861 3.6 1.853 3.585l.942-.727 13.165 8.764c-.11.313-.153.673-.218.972-.231 1.055-.529 1.516-.994 2.518-.665.027-2.033.022-2.079.006zM2.86 12.008c.121-.293.288-.764.428-1.002.689.432 3.379 3.15 3.612 3.516-.13.048-.686.132-1.61.503-.586.235-1.14.458-1.674.276-.053-.018-.195-.14-.406-.322a6.975 6.975 0 00-.935-.695c-.346-.205-.292-.162.585-2.276z" fill="#AFAFB3"/>
</svg>
