<svg width="9" height="11" fill="none" xmlns="http://www.w3.org/2000/svg">
    <path fill-rule="evenodd" clip-rule="evenodd" d="M4.5 9.965c1.961 0 3.461-1.367 3.461-3.105 0-1.029-.486-1.527-1.343-2.378-.705-.7-1.58-1.579-1.945-3.042-.2.158-.394.355-.55.586-.338.496-.494 1.13-.08 1.956.328.653.464 1.575-.192 2.23-.391.389-1.06.663-1.786.36a2.066 2.066 0 01-.82-.647 2.17 2.17 0 00-.206.935c0 1.745 1.498 3.105 3.46 3.105zM5.55.304c-.012-.19-.167-.343-.352-.295-1.183.31-3.285 2.042-2.084 4.436.239.475.197.84.002 1.034-.32.319-.934.343-1.436-.88-.074-.18-.277-.281-.444-.182C.473 4.87 0 5.85 0 6.86 0 9.283 2.076 11 4.5 11 6.923 11 9 9.275 9 6.86c0-1.475-.78-2.25-1.6-3.063-.852-.845-1.747-1.733-1.85-3.493z" fill="url(#paint0_linear)"/>
    <defs>
        <linearGradient id="paint0_linear" x1="8.39" y1="0" x2="-1.449" y2="7.299" gradientUnits="userSpaceOnUse">
            <stop stop-color="#FB6F43"/>
            <stop offset="1" stop-color="#B41431"/>
        </linearGradient>
    </defs>
</svg>
