<svg width="153" height="40" fill="none" xmlns="http://www.w3.org/2000/svg">
    <g clip-path="url(#clip0)">
        <path d="M35.523 0l-.703 1.053-.703.35L33.06 0H10.903l-.351 1.404-.704.701L9.524 0H5.98v23.509l-2.462 2.456v.702l1.055-.351-2.11 2.807h1.055l2.462-1.404v7.369h23.917l1.055 1.052h1.055l.704 1.404.703-.702.352-1.754h7.386V16.14l1.055-1.052.352-1.404h-.704l.352-1.403 1.758-2.807V8.42l-2.813 2.105V0h-5.628zM10.551 30.526v-9.824a15.204 15.204 0 018.49 6.793c.057.098 3.82-2.583 3.82-2.583l-1.055 1.404s-2.405 1.824-2.37 1.895c.386.743.708 1.518.964 2.315h-9.848zm26.027 0H25.496a19.986 19.986 0 00-5.343-9.578 20.062 20.062 0 00-9.601-5.33V4.56h11.082a19.857 19.857 0 001.58 4.369c.101.193-1.408 2.298-1.408 2.298l1.056-.35s.928-.878.998-.759a20.091 20.091 0 009.8 8.421c.19.078.457-.305.457-.305l.351-.702.352-.35s-.113 1.754 0 1.778a21.38 21.38 0 001.758.499v11.066zM26.73 4.561h9.848v9.825a15.205 15.205 0 01-6.118-3.72 15.156 15.156 0 01-3.73-6.105z" fill="url(#paint0_linear)"/>
        <path d="M53.876 25.705V12.933h4.664a6.719 6.719 0 014.846 1.846 6.048 6.048 0 011.92 4.54 6.046 6.046 0 01-1.92 4.562 6.718 6.718 0 01-4.846 1.842l-4.664-.018zm2.75-2.547h1.92a3.876 3.876 0 002.815-1.095 3.918 3.918 0 000-5.473 3.87 3.87 0 00-2.814-1.095h-1.92v7.663z" fill="url(#paint1_linear)"/>
        <path d="M69.045 24.028a6.546 6.546 0 01-2-4.707 6.534 6.534 0 012-4.707 7.234 7.234 0 019.894 0 6.541 6.541 0 012.004 4.707 6.528 6.528 0 01-2.004 4.707 7.244 7.244 0 01-9.894 0zm2.03-7.617a4.142 4.142 0 000 5.82 4.122 4.122 0 004.494.894 4.116 4.116 0 002.54-3.806 4.108 4.108 0 00-.698-2.28 4.124 4.124 0 00-4.226-1.748 4.128 4.128 0 00-2.11 1.12z" fill="url(#paint2_linear)"/>
        <path d="M86.248 25.705V15.488H82.59v-2.555h10.059v2.555h-3.665v10.217h-2.736z" fill="url(#paint3_linear)"/>
        <path d="M94.295 25.705l4.924-12.772h3.13l4.924 12.772h-2.919l-1.097-2.919h-4.924l-1.098 2.92h-2.94zm4.924-5.382h3.13l-1.519-4.21h-.074l-1.537 4.21z" fill="url(#paint4_linear)"/>
        <path d="M113.407 23.158h5.473v2.554h-9.039a6.837 6.837 0 01.352-2.224c.196-.604.497-1.17.889-1.67.36-.445.764-.852 1.207-1.215.42-.351.859-.68 1.315-.982.447-.284.848-.558 1.21-.821.348-.242.652-.541.901-.884.225-.306.348-.674.351-1.053a1.504 1.504 0 00-.513-1.175 1.889 1.889 0 00-1.316-.467 2.209 2.209 0 00-1.688.779 2.957 2.957 0 00-.51.765l-2.195-1.095a5.15 5.15 0 01.947-1.495 4.713 4.713 0 013.622-1.515 4.61 4.61 0 013.247 1.14 3.747 3.747 0 011.22 2.874 3.91 3.91 0 01-.422 1.835 4.498 4.498 0 01-1.097 1.379c-.45.376-.919.727-1.407 1.052-.469.316-.955.667-1.456 1.053a4.771 4.771 0 00-1.091 1.165z" fill="url(#paint5_linear)"/>
        <path d="M122.879 25.47a1.501 1.501 0 01-.227-1.9 1.51 1.51 0 012.753 1.09 1.504 1.504 0 01-1.471 1.228 1.404 1.404 0 01-1.055-.418z" fill="url(#paint6_linear)"/>
        <path d="M128.222 25.705V12.933h5.669a4.5 4.5 0 013.278 1.18 4.132 4.132 0 011.217 3.109 4.006 4.006 0 01-1.101 2.974c-.305.33-.678.592-1.094.765l2.649 4.744h-3.018l-2.286-4.21h-2.557v4.21h-2.757zm2.743-6.758h2.835a1.736 1.736 0 001.737-1.733 1.736 1.736 0 00-1.737-1.733h-2.835v3.466z" fill="url(#paint7_linear)"/>
        <path d="M141.844 20.414v-7.48h2.743v7.48a3.042 3.042 0 00.788 2.182 2.947 2.947 0 004.097 0c.54-.596.821-1.38.785-2.182v-7.48h2.74v7.48a5.556 5.556 0 01-1.562 4.065 5.587 5.587 0 01-6.198 1.258 5.587 5.587 0 01-3.031-3.132 5.555 5.555 0 01-.366-2.191h.004z" fill="url(#paint8_linear)"/>
    </g>
    <defs>
        <linearGradient id="paint0_linear" x1="41.151" y1="0" x2="6.063" y2="35.172" gradientUnits="userSpaceOnUse">
            <stop stop-color="#FB6F43"/>
            <stop offset="1" stop-color="#B41431"/>
        </linearGradient>
        <linearGradient id="paint1_linear" x1="59.591" y1="12.933" x2="59.591" y2="25.705" gradientUnits="userSpaceOnUse">
            <stop stop-color="#fff"/>
            <stop offset="1" stop-color="#CCC"/>
        </linearGradient>
        <linearGradient id="paint2_linear" x1="2991.13" y1="493.233" x2="2991.13" y2="998.849" gradientUnits="userSpaceOnUse">
            <stop stop-color="#fff"/>
            <stop offset="1" stop-color="#CCC"/>
        </linearGradient>
        <linearGradient id="paint3_linear" x1="2588.5" y1="483.707" x2="2588.5" y2="948.605" gradientUnits="userSpaceOnUse">
            <stop stop-color="#fff"/>
            <stop offset="1" stop-color="#CCC"/>
        </linearGradient>
        <linearGradient id="paint4_linear" x1="3813.36" y1="483.707" x2="3813.36" y2="948.605" gradientUnits="userSpaceOnUse">
            <stop stop-color="#fff"/>
            <stop offset="1" stop-color="#CCC"/>
        </linearGradient>
        <linearGradient id="paint5_linear" x1="3049.64" y1="483.761" x2="3049.64" y2="969.229" gradientUnits="userSpaceOnUse">
            <stop stop-color="#fff"/>
            <stop offset="1" stop-color="#CCC"/>
        </linearGradient>
        <linearGradient id="paint6_linear" x1="1185.68" y1="220.008" x2="1185.68" y2="245.063" gradientUnits="userSpaceOnUse">
            <stop stop-color="#fff"/>
            <stop offset="1" stop-color="#CCC"/>
        </linearGradient>
        <linearGradient id="paint7_linear" x1="4159.36" y1="483.929" x2="4159.36" y2="949.054" gradientUnits="userSpaceOnUse">
            <stop stop-color="#fff"/>
            <stop offset="1" stop-color="#CCC"/>
        </linearGradient>
        <linearGradient id="paint8_linear" x1="4821.02" y1="501.209" x2="4821.02" y2="993.724" gradientUnits="userSpaceOnUse">
            <stop stop-color="#fff"/>
            <stop offset="1" stop-color="#CCC"/>
        </linearGradient>
        <clipPath id="clip0">
            <path fill="#fff" d="M0 0h153v40H0z"/>
        </clipPath>
    </defs>
</svg>
