<?xml version="1.0" encoding="utf-8"?><svg xmlns="http://www.w3.org/2000/svg" xmlns:xlink="http://www.w3.org/1999/xlink"><symbol viewBox="0 0 6 10" id="arrow-left" xmlns="http://www.w3.org/2000/svg"><path fill-rule="evenodd" clip-rule="evenodd" d="M5.78 9.78a.75.75 0 01-1.06 0L.47 5.53a.75.75 0 010-1.06L4.72.22a.75.75 0 011.06 1.06L2.06 5l3.72 3.72a.75.75 0 010 1.06z"/></symbol><symbol viewBox="0 0 16 16" id="blacklist" xmlns="http://www.w3.org/2000/svg"><path fill-rule="evenodd" clip-rule="evenodd" d="M4.47.22A.75.75 0 015 0h6a.75.75 0 01.53.22l4.25 4.25c.141.14.22.331.22.53v6a.75.75 0 01-.22.53l-4.25 4.25A.75.75 0 0111 16H5a.75.75 0 01-.53-.22L.22 11.53A.75.75 0 010 11V5a.75.75 0 01.22-.53L4.47.22zm.84 1.28L1.5 5.31v5.38l3.81 3.81h5.38l3.81-3.81V5.31L10.69 1.5H5.31zM8 4a.75.75 0 01.75.75v3.5a.75.75 0 01-1.5 0v-3.5A.75.75 0 018 4zm0 8a1 1 0 100-2 1 1 0 000 2z"/></symbol><symbol viewBox="0 0 16 16" id="cup" xmlns="http://www.w3.org/2000/svg"><path fill-rule="evenodd" clip-rule="evenodd" d="M10.26 9.955c-.45.741-.99 1.43-1.61 2.049A3.002 3.002 0 0111.5 15h-8a2.995 2.995 0 012.792-2.993 9.998 9.998 0 01-1.668-2.082A4.414 4.414 0 011.46 6.62l-.447-2.012A.5.5 0 011.5 4h1.625l-.059-.938A1 1 0 014.064 2h7.364c.31 0 .556.262.536.571L11.875 4H13.5a.5.5 0 01.488.608l-.447 2.012a4.414 4.414 0 01-3.28 3.335zM4.065 3h6.872l-.122 1.947a9.832 9.832 0 01-3.33 6.78A9 9 0 014.21 5.33L4.064 3zm6.889 5.61a10.82 10.82 0 00.859-3.6V5h1.065l-.312 1.403a3.414 3.414 0 01-1.612 2.208zM2.123 5h1.064l.025.393a9.995 9.995 0 00.719 3.147 3.413 3.413 0 01-1.496-2.137L2.123 5zM8.5 13a2 2 0 011.732 1H4.768A2 2 0 016.5 13h2z"/></symbol><symbol viewBox="0 0 16 16" id="email" xmlns="http://www.w3.org/2000/svg"><g clip-path="url(#dclip0)"><path fill-rule="evenodd" clip-rule="evenodd" d="M1.75 2A1.75 1.75 0 000 3.75v.736a.75.75 0 000 .027v7.737C0 13.216.784 14 1.75 14h12.5A1.75 1.75 0 0016 12.25v-8.5A1.75 1.75 0 0014.25 2H1.75zM14.5 4.07v-.32a.25.25 0 00-.25-.25H1.75a.25.25 0 00-.25.25v.32L8 7.88l6.5-3.81zm-13 1.74v6.441c0 .138.112.25.25.25h12.5a.25.25 0 00.25-.25V5.809L8.38 9.397a.75.75 0 01-.76 0L1.5 5.809z"/></g><defs><clipPath id="dclip0"><path d="M0 0h16v16H0z"/></clipPath></defs></symbol><symbol viewBox="0 0 32 32" id="filter-1" xmlns="http://www.w3.org/2000/svg"><path d="M16.26 4.009a4.22 4.22 0 00-1.24.271l-.965.38a1.963 1.963 0 00-.439.23l1.99.792c.413.164 1.422.127 2.212-.188l.954-.383c.21-.084.344-.167.423-.226l-1.974-.789c-.206-.08-.56-.113-.96-.087zm-3.95 1.564c-.407.028-.86.116-1.263.276l-.975.385a1.87 1.87 0 00-.458.24l2.009.802c.415.165 1.44.125 2.242-.197l.969-.387a1.83 1.83 0 00.442-.239l-1.993-.795c-.208-.083-.565-.114-.974-.085zm7.995.048a4.253 4.253 0 00-1.234.271l-.954.386a1.84 1.84 0 00-.434.232l1.994.795c.413.164 1.418.127 2.199-.193l.947-.387c.216-.088.345-.169.42-.228l-1.981-.79c-.206-.082-.559-.112-.957-.086zM8.296 7.16c-.41.028-.872.118-1.28.28l-.993.392c-.249.098-.394.19-.475.254l2.025.808c.422.166 1.46.125 2.276-.202l.984-.396c.242-.096.381-.186.46-.25l-2.013-.8c-.207-.083-.57-.114-.984-.086zm8.093.037a4.256 4.256 0 00-1.256.276l-.969.39a1.75 1.75 0 00-.453.245l2.015.803c.417.165 1.433.123 2.229-.199l.96-.394c.229-.094.364-.18.44-.239l-2-.8c-.207-.08-.562-.113-.966-.082zm7.962.035a4.133 4.133 0 00-1.226.273l-.946.386a1.705 1.705 0 00-.432.239l2.003.797c.412.164 1.41.122 2.181-.197l.94-.388a1.75 1.75 0 00.419-.234l-1.99-.793c-.203-.081-.554-.112-.95-.083zM12.973 8.796a4.35 4.35 0 00-1.84.285l-.984.394c-.25.101-.394.193-.47.257l2.031.812c.42.166 1.45.123 2.261-.208l.976-.396a1.75 1.75 0 00.458-.254l-2.02-.806a1.638 1.638 0 00-.412-.084zm7.489.024c-.4.029-.85.121-1.241.28l-.963.393a1.814 1.814 0 00-.449.247l2.02.806c.415.167 1.426.125 2.216-.203l.952-.395a1.77 1.77 0 00.436-.243l-2.007-.8c-.207-.082-.562-.113-.964-.085zM5.15 8.88a.151.151 0 00-.094.028c-.05.037-.056.13-.056.182v2.304c0 .346.28.801.603.972l1.22.684c.151.08.27.08.318.045.043-.032.05-.12.05-.17v-2.451c0-.368-.306-.83-.657-.988l-1.222-.565a.463.463 0 00-.162-.041zm22.702.043a.424.424 0 00-.158.04l-1.243.521c-.333.145-.642.598-.642.953v2.418c0 .048.007.133.05.166.047.035.164.035.316-.044l1.241-.648c.31-.162.584-.602.584-.94V9.127c0-.048-.006-.14-.053-.177a.168.168 0 00-.095-.027zM8.49 10.244a.229.229 0 00-.137.037c-.043.033-.066.099-.066.193v2.45c0 .338.303.866.736 1.09l2.036.998c.214.11.38.11.454.059.038-.03.06-.092.06-.184v-2.615c0-.403-.38-.922-.81-1.108L8.73 10.3a.617.617 0 00-.24-.057zm16.016.081a.582.582 0 00-.227.05l-2.034.903c-.439.181-.815.688-.815 1.086v2.595c0 .09.019.151.06.18.072.052.243.055.457-.055l2.041-1.051c.428-.215.727-.734.727-1.062v-2.418c0-.092-.021-.156-.066-.19a.241.241 0 00-.143-.038zm-7.427.107a4.292 4.292 0 00-1.827.287l-.976.399a1.83 1.83 0 00-.468.26l2.04.813c.42.169 1.447.123 2.247-.21l.969-.401c.241-.1.378-.193.453-.256l-2.026-.806a1.538 1.538 0 00-.412-.086zm-4.152 1.584a.302.302 0 00-.182.05c-.02.013-.077.057-.077.206v2.615c0 .366.357.96.87 1.222l1.748.909c.282.145.503.14.597.072.019-.013.07-.048.07-.195v-2.803c0-.394-.395-1.005-.964-1.25l-1.748-.754a.773.773 0 00-.315-.072zm7.133.087a.835.835 0 00-.31.073l-1.726.68c-.573.24-.975.844-.975 1.236v2.803c0 .143.051.18.07.193.099.072.328.075.62-.072l1.723-.848c.515-.26.872-.845.872-1.209v-2.595c0-.147-.057-.19-.077-.206a.327.327 0 00-.197-.055zm7.393.868l-.057.035-.009.004c-.026.026-.05.055-.075.075l-.826.692c-.034.033-.072.048-.109.07-.01.063-.019.122-.019.175v2.462a1.34 1.34 0 00.212-.226l.3-.309c.344-.457.583-1.156.583-1.504V12.97zm-2.19 1.879c-.086.033-.21.092-.368.195l-.43.282c-.528.346-.845.86-.845 1.376v2.435c.113-.042.293-.134.526-.313l.19-.125c.598-.47.927-1.253.927-1.616V14.85zm-19.29.022a.388.388 0 00-.26.09c-.102.087-.16.238-.16.42l-.004 2.66c0 .467.348.958.761 1.076l2.482.677c.169.048.318.024.425-.066.103-.087.16-.238.163-.422l.002-2.692c0-.43-.426-.955-.875-1.077l-2.38-.644a.557.557 0 00-.155-.022zm4.827 1.226a.28.28 0 00-.173.062c-.094.08-.148.247-.148.457l-.002 2.69c0 .473.36.974.785 1.095l2.433.714c.2.057.38.037.487-.053.086-.072.126-.19.126-.35l.002-2.723a1.17 1.17 0 00-.177-.57l-1.07-.549a2.317 2.317 0 01-.453-.309l-1.634-.442a.511.511 0 00-.176-.022zm16.653.316c-.04.032-.09.078-.145.144l-.317.291c-.35.408-.633 1.124-.633 1.472v2.041c.067-.061.15-.15.246-.278l.242-.328c.353-.471.607-1.312.607-1.647v-1.696zm-4.928.448c-.156.036-.443.152-.802.41l-.405.267c-.61.44-.984 1.073-.984 1.684v2.86a2.86 2.86 0 00.381-.282l.586-.431c.749-.642 1.224-1.612 1.224-2.002v-2.505zm-4.777 1.006l-1.1.47a.376.376 0 01-.138.03.327.327 0 01-.15-.036l-.946-.438c-.002.033-.008.064-.008.096v2.723c0 .48.37.99.808 1.114l2.39.596c.188.053.353.029.47-.07.105-.09.165-.243.165-.43v-2.752c0-.486-.378-.999-.823-1.12l-.668-.183zm7.515 1.198c-.073.048-.16.111-.263.197l-.208.142c-.656.532-1.172 1.402-1.172 1.803v2.415a2.8 2.8 0 00.171-.153l.434-.405c.61-.572 1.038-1.43 1.038-1.842v-2.157zm-19.3 1.193a.38.38 0 00-.252.086c-.1.085-.158.234-.158.416l-.004 2.663c0 .469.348.968.763 1.09l2.383.708a.553.553 0 00.516-.09.48.48 0 00.169-.385l.002-2.696c0-.473-.357-.973-.779-1.093l-2.477-.675a.636.636 0 00-.162-.024zm4.87 1.288a.386.386 0 00-.193.085c-.103.088-.16.237-.16.421l-.003 2.694c0 .517.295.994.687 1.11l2.436.723c.231.068.456.042.589-.068.08-.068.121-.169.121-.304v-2.725c0-.5-.393-1.086-.808-1.202l-2.432-.714a.563.563 0 00-.238-.02zm11.692.029c-.133.067-.33.194-.588.413l-.602.44c-.731.623-1 1.396-1 1.904v2.713c.09-.074.209-.175.357-.322l.526-.49c.736-.727 1.307-1.783 1.307-2.212v-2.446zm-6.68 1.39a.413.413 0 00-.274.094c-.105.088-.165.241-.165.425v2.725c0 .492.278.891.71 1.02l2.492.74c.186.055.353.033.469-.063.104-.09.162-.239.162-.425v-2.757c0-.489-.38-1.008-.83-1.137l-2.374-.593a.757.757 0 00-.19-.029z"/></symbol><symbol viewBox="0 0 32 32" id="filter-2" xmlns="http://www.w3.org/2000/svg"><path d="M28 9.574c-.094-4.467-.1-3.502-.008-4.894a.15.15 0 00-.139-.16c-6.616-.454-6.866-.507-7.379-.507-9.025 0-4.287-.149-16.334.566a.15.15 0 00-.14.157c.777 14.976.748 12.533.352 22.514a.15.15 0 00.114.152c.902.214.742.13 2.845.131.004.001 3.942-.431 3.945-.432a3289.6 3289.6 0 005.477.899c6.36-.536 4.537-.407 8.64-.636l2.41.49a.15.15 0 00.179-.148C27.91 22.829 28 9.574 28 9.574zm-9.78-.356a.898.898 0 00.075-.02l1.715-.388c.879-.221 1.008-.275 1.76-.63.347.12 1.299.65 1.54.954.16.201.149.246.099.462a5.344 5.344 0 00-.034.156l-.377 2.967c-.374.014-.405-.015-.508-.11a1.403 1.403 0 00-.189-.152 74.49 74.49 0 01-3.01-2.24l-1.154-.931.01-.01a.163.163 0 00.03-.044c.006-.005.03-.01.043-.014zm2.672 14.939c-.034-.034-14.41-15.358-14.421-15.379l1.256-.969 17.552 11.686c-.145.418-.203.897-.29 1.295-.308 1.407-.705 2.022-1.325 3.359-.887.035-2.71.028-2.772.008zM7.814 20.01c.161-.39.383-1.019.57-1.337.918.577 4.505 4.2 4.817 4.689-.173.064-.915.175-2.148.67-.781.314-1.519.61-2.231.368-.071-.024-.26-.186-.542-.43a9.3 9.3 0 00-1.247-.926c-.46-.273-.39-.216.78-3.034z"/></symbol><symbol viewBox="0 0 32 32" id="filter-3" xmlns="http://www.w3.org/2000/svg"><path d="M12.406 6l.814 2.808 11.417 2.825L28 6H12.406zm-1.121 0l1.028 3.547-.013.004 2.042 7.025-2.489 2.448L4 6h7.285zm1.105 13.915L16.06 26l8.018-13.431-3.316-.82-8.336 8.199-.036-.034zm2.826-4.218l4.26-4.198-5.898-1.455 1.638 5.653z"/></symbol><symbol viewBox="0 0 32 32" id="filter-4" xmlns="http://www.w3.org/2000/svg"><path fill-rule="evenodd" clip-rule="evenodd" d="M16 28c6.627 0 12-5.373 12-12S22.627 4 16 4 4 9.373 4 16s5.373 12 12 12zm-.468-20.308h-.417c-.286.097-.572.256-.734.537-.252.41-.287.938-.129 1.394a9.842 9.842 0 00-.09.065c-.272-.225-.65-.114-.91.074-.38.299-.582.787-.666 1.27-.087.408-.048.827-.001 1.237a2.374 2.374 0 01-.418.056l-.06.005c-.066.003-.15.03-.158.113-.022.148-.026.298-.03.448-.006.179-.012.358-.047.534a2.739 2.739 0 00-.061.628c.175.042.35.081.526.12l-.075.033c-.099.044-.2.088-.269.178-.042.296-.003.59.036.885.03.226.06.453.053.68l-.047.042c-.077.065-.156.133-.18.238-.03.085-.016.171-.002.258a.672.672 0 01.013.2c-.02.168.016.335.067.492.04.108.02.221.001.332l-.012.075-.024.143c-.05.3-.1.601-.112.906-.004.07.002.142.008.214.01.116.021.232-.015.344-.086.205-.2.395-.313.584-.131.22-.263.44-.352.685-.032.091-.042.188-.053.285-.014.125-.028.25-.088.362-.02.041-.043.083-.065.124-.099.183-.2.37-.189.588a.633.633 0 00.042.23c.03.097.06.193.027.296-.088.37-.175.74-.272 1.108a1.4 1.4 0 00-.005.757.962.962 0 00.269.085l.047.01h.412c.097-.009.192-.023.288-.038l.11-.017c.039-.192-.006-.38-.068-.558a2.067 2.067 0 01.208-1.325.54.54 0 01.118-.11.406.406 0 00.146-.156c.043-.096.074-.197.105-.298.026-.084.052-.168.085-.249a4.9 4.9 0 01.11-.247c.076-.167.153-.335.196-.516a.866.866 0 00.01-.264c-.004-.062-.008-.124-.002-.186a.939.939 0 01.228-.447 1.16 1.16 0 00.177-.248.988.988 0 01.215-.28c.099-.077.118-.205.137-.328l.01-.067c.024-.185.082-.362.146-.535l.054-.15c.068-.195.137-.392.277-.542.112-.122.168-.283.209-.445.015.03.03.061.043.092.053.114.107.229.195.316a.56.56 0 00.148.044c.094.02.189.039.238.136.107.169.213.34.319.51.11.179.222.358.335.537.087.177.273.172.441.169.037-.001.072-.002.106 0a.69.69 0 01.098.532.735.735 0 01-.078.268c-.044.102-.088.203-.075.32.018.439.05.881.16 1.306.014.077.038.152.062.226.038.117.076.234.078.36.001.076.008.153.014.23.013.164.026.327-.005.487a3.38 3.38 0 00-.203.983c.147.09.307.08.468.069a.945.945 0 01.38.025c.49.168 1.018.162 1.523.08 0-.032.004-.066.007-.1a.47.47 0 00-.02-.247c-.095-.117-.227-.165-.36-.212a1.1 1.1 0 01-.262-.122c-.136-.127-.25-.279-.364-.43l-.053-.069c-.11-.135-.12-.323-.124-.493v-.02c.002-.253.003-.513.093-.75.068-.195.045-.405.008-.604-.034-.166-.006-.33.023-.495.013-.077.026-.154.033-.23.031-.33.053-.66.073-.989.012-.153-.026-.3-.065-.446a5.287 5.287 0 01-.026-.1c-.014-.091-.065-.16-.116-.23a.614.614 0 01-.11-.195c-.264-.758-.547-1.537-1.068-2.142-.201-.207-.302-.553-.18-.832l.128.037c.07.021.14.042.21.06.123-.17.242-.359.261-.578.01-.117.017-.234.024-.352.006-.109.012-.218.021-.327.003-.068.009-.135.014-.203.015-.18.03-.363-.015-.54-.033-.136-.146-.208-.253-.277l-.066-.043.003-.012c.029-.11.057-.221.082-.333.116.058.23.125.343.191.28.163.56.327.88.379.03.005.06.012.092.02.092.022.187.044.276.001.113-.056.209-.142.304-.227a3.28 3.28 0 01.132-.114c.182-.149.22-.383.257-.615.016-.1.032-.2.059-.29a7.412 7.412 0 01.269-.104 4.428 4.428 0 00-.047-.191c-.053-.208-.107-.418-.08-.633.058-.082.124-.158.19-.233.058-.064.115-.128.166-.197.08-.114.22-.144.347-.14h.503c.215.002.43.003.644 0l.038-.173c.178.01.355-.001.532-.013.22-.015.441-.03.662-.001.249.044.502.026.752.007a1.87 1.87 0 01-.023-.228c-.057 0-.114-.002-.172-.004-.145-.004-.29-.009-.434.014-.258.048-.52.038-.782.028l-.121-.004a9.417 9.417 0 01-.008-.182l-.002-.047a2.687 2.687 0 00-.044-.005 1.017 1.017 0 01-.123-.02 1.619 1.619 0 01-.036-.428l-.001-.157-.116-.002c-.007.168-.008.336-.01.505v.16a.55.55 0 01-.064-.068c-.047-.056-.095-.113-.17-.107-.587-.002-1.175-.002-1.762-.001h-1.175c-.127.015-.23-.055-.332-.124a2.203 2.203 0 00-.07-.046 4.413 4.413 0 00-.047-.304.804.804 0 00-.108.33c-.006.035-.012.07-.02.106l-.202.044a3.572 3.572 0 01-.5.092l-.008-.05a8.798 8.798 0 01-.05-.38 2.38 2.38 0 01.103-.047.866.866 0 00.27-.16c.1-.31.021-.628-.055-.935a7.804 7.804 0 01-.046-.192 3.86 3.86 0 00-.822-.48zm1.987 3.434c.108-.057.143-.176.157-.295.087-.005.174-.008.262-.01l.005.132.004.13a1.87 1.87 0 01-.325.037c-.034.002-.069.003-.103.006zm-.163.075l.024-.033c.146-.016.292-.008.438-.001.017 0 .034.002.05.003-.09.146-.186.29-.282.434l-.043.065c-.022-.04-.046-.078-.07-.117a.823.823 0 01-.142-.317l.025-.034z"/></symbol><symbol viewBox="0 0 13 12" id="like" xmlns="http://www.w3.org/2000/svg"><path d="M6.447 1.224l.021-.042.013-.045c.035-.123.183-.29.521-.434A2.72 2.72 0 018 .5c.032 0 .162.039.312.188.15.15.188.28.188.312v2.5H10c.517 0 1.168.006 1.69.214.248.1.443.237.577.422.131.183.233.45.233.864 0 .965-.121 2.187-.306 3.293-.187 1.125-.428 2.057-.641 2.483-.22.44-.395.572-.551.635-.204.081-.47.089-1.002.089-.462 0-1.933-.12-3.418-.368a17.44 17.44 0 01-2.063-.455 5.728 5.728 0 01-.76-.278 2.247 2.247 0 01-.259-.14V4.281a2.9 2.9 0 01.113-.046c.123-.048.258-.093.406-.143l.22-.075c.222-.077.47-.168.675-.277a1.59 1.59 0 00.311-.21.864.864 0 00.237-.336l.985-1.97zM3.5 4v-.5A.5.5 0 003 3H1a.5.5 0 00-.5.5v7a.5.5 0 00.5.5h2a.5.5 0 00.5-.5V10"/></symbol><symbol viewBox="0 0 13 14" id="login" xmlns="http://www.w3.org/2000/svg"><path fill-rule="evenodd" clip-rule="evenodd" d="M0 1.75C0 .783.783 0 1.75 0h2.5a.75.75 0 010 1.5h-2.5a.25.25 0 00-.25.25v10.5c0 .138.112.25.25.25h2.5a.75.75 0 010 1.5h-2.5A1.75 1.75 0 010 12.25V1.75zm10.44 4.5H4.75a.75.75 0 000 1.5h5.69L8.47 9.72a.75.75 0 101.06 1.06l3.25-3.25a.75.75 0 000-1.06L9.53 3.22a.75.75 0 10-1.06 1.06l1.97 1.97z"/></symbol><symbol viewBox="0 0 13 14" id="logout" xmlns="http://www.w3.org/2000/svg"><path fill-rule="evenodd" clip-rule="evenodd" d="M0 1.75C0 .783.783 0 1.75 0h2.5a.75.75 0 010 1.5h-2.5a.25.25 0 00-.25.25v10.5c0 .138.112.25.25.25h2.5a.75.75 0 010 1.5h-2.5A1.75 1.75 0 010 12.25V1.75zm6.56 4.5l1.97-1.97a.75.75 0 10-1.06-1.06L4.22 6.47a.75.75 0 000 1.06l3.25 3.25a.75.75 0 101.06-1.06L6.56 7.75h5.69a.75.75 0 000-1.5H6.56z"/></symbol><symbol viewBox="0 0 16 16" id="notify" xmlns="http://www.w3.org/2000/svg"><path fill-rule="evenodd" clip-rule="evenodd" d="M8 0a5 5 0 00-5 5v2.947a.25.25 0 01-.042.139L1.255 10.64A1.518 1.518 0 002.518 13h10.964a1.518 1.518 0 001.263-2.36l-1.703-2.554A.25.25 0 0113 7.947V5a5 5 0 00-5-5zM4.5 5a3.5 3.5 0 117 0v2.947c0 .346.102.683.294.97l1.703 2.556a.017.017 0 01.003.01v.004l-.001.002-.004.006-.006.004-.007.001H2.518l-.007-.001-.006-.004a.028.028 0 01-.004-.006l-.001-.007.003-.01 1.703-2.554a1.75 1.75 0 00.294-.97V5z"/><path d="M9.985 14.25a2 2 0 01-3.97 0c-.017-.137.097-.25.235-.25h3.5c.138 0 .252.113.235.25z"/></symbol><symbol viewBox="0 0 8 8" id="pin" xmlns="http://www.w3.org/2000/svg"><path d="M3.641.619A.875.875 0 002.228.367L.367 2.227a.875.875 0 00.252 1.414l.664.306a1.54 1.54 0 01.853 1.042l.292 1.227c.159.666.986.9 1.47.416L5 5.53l1.86 1.86a.375.375 0 10.53-.53L5.53 5l1.102-1.102a.875.875 0 00-.416-1.47L4.99 2.136a1.54 1.54 0 01-1.042-.853L3.641.619z"/></symbol><symbol viewBox="0 0 16 16" id="profile" xmlns="http://www.w3.org/2000/svg"><path fill-rule="evenodd" clip-rule="evenodd" d="M7.429 1.525a6.593 6.593 0 011.142 0c.036.003.108.036.137.146l.289 1.105c.147.56.55.967.997 1.189.174.086.341.183.501.29.417.278.97.423 1.53.27l1.102-.303c.11-.03.175.016.195.046.219.31.41.641.573.989.014.031.022.11-.059.19l-.815.806c-.411.406-.562.957-.53 1.456a4.588 4.588 0 010 .582c-.032.499.119 1.05.53 1.456l.815.806c.08.08.073.159.059.19a6.494 6.494 0 01-.573.99c-.02.029-.086.074-.195.045l-1.103-.303c-.559-.153-1.112-.008-1.529.27-.16.107-.327.204-.5.29-.449.222-.851.628-.998 1.189l-.289 1.105c-.029.11-.101.143-.137.146a6.613 6.613 0 01-1.142 0c-.036-.003-.108-.037-.137-.146l-.289-1.105c-.147-.56-.55-.967-.997-1.189a4.502 4.502 0 01-.501-.29c-.417-.278-.97-.423-1.53-.27l-1.102.303c-.11.03-.175-.016-.195-.046a6.492 6.492 0 01-.573-.989c-.014-.031-.022-.11.059-.19l.815-.806c.411-.406.562-.957.53-1.456a4.587 4.587 0 010-.582c.032-.499-.119-1.05-.53-1.456l-.815-.806c-.08-.08-.073-.159-.059-.19a6.44 6.44 0 01.573-.99c.02-.029.086-.075.195-.045l1.103.303c.559.153 1.112.008 1.529-.27.16-.107.327-.204.5-.29.449-.222.851-.628.998-1.189l.289-1.105c.029-.11.101-.143.137-.146zM8 0c-.236 0-.47.01-.701.03-.743.065-1.29.615-1.458 1.261l-.29 1.106c-.017.066-.078.158-.211.224a5.994 5.994 0 00-.668.386c-.123.082-.233.09-.3.071L3.27 2.776c-.644-.177-1.392.02-1.82.63a7.977 7.977 0 00-.704 1.217c-.315.675-.111 1.422.363 1.891l.815.806c.05.048.098.147.088.294a6.084 6.084 0 000 .772c.01.147-.038.246-.088.294l-.815.806c-.474.469-.678 1.216-.363 1.891.2.428.436.835.704 1.218.428.609 1.176.806 1.82.63l1.103-.303c.066-.019.176-.011.299.071.213.143.436.272.668.386.133.066.194.158.212.224l.289 1.106c.169.646.715 1.196 1.458 1.26a8.094 8.094 0 001.402 0c.743-.064 1.29-.614 1.458-1.26l.29-1.106c.017-.066.078-.158.211-.224a5.98 5.98 0 00.668-.386c.123-.082.233-.09.3-.071l1.102.302c.644.177 1.392-.02 1.82-.63.268-.382.505-.789.704-1.217.315-.675.111-1.422-.364-1.891l-.814-.806c-.05-.048-.098-.147-.088-.294a6.1 6.1 0 000-.772c-.01-.147.039-.246.088-.294l.814-.806c.475-.469.679-1.216.364-1.891a7.992 7.992 0 00-.704-1.218c-.428-.609-1.176-.806-1.82-.63l-1.103.303c-.066.019-.176.011-.299-.071a5.991 5.991 0 00-.668-.386c-.133-.066-.194-.158-.212-.224L10.16 1.29C9.99.645 9.444.095 8.701.031A8.094 8.094 0 008 0zm1.5 8a1.5 1.5 0 11-3 0 1.5 1.5 0 013 0zM11 8a3 3 0 11-6 0 3 3 0 016 0z"/></symbol><symbol viewBox="0 0 15 15" id="search" xmlns="http://www.w3.org/2000/svg"><path fill-rule="evenodd" clip-rule="evenodd" d="M10.5 6a4.499 4.499 0 11-8.998 0A4.499 4.499 0 0110.5 6zm-.82 4.74a6 6 0 111.06-1.06l3.04 3.04a.75.75 0 11-1.06 1.06l-3.04-3.04z"/></symbol><symbol viewBox="0 0 16 16" id="security" xmlns="http://www.w3.org/2000/svg"><path fill-rule="evenodd" clip-rule="evenodd" d="M4 4v2h-.25A1.75 1.75 0 002 7.75v5.5c0 .966.784 1.75 1.75 1.75h8.5A1.75 1.75 0 0014 13.25v-5.5A1.75 1.75 0 0012.25 6H12V4a4 4 0 10-8 0zm6.5 2V4a2.5 2.5 0 00-5 0v2h5zM12 7.5h.25a.25.25 0 01.25.25v5.5a.25.25 0 01-.25.25h-8.5a.25.25 0 01-.25-.25v-5.5a.25.25 0 01.25-.25H12z"/></symbol><symbol viewBox="0 0 16 16" id="slide-top-icon" xmlns="http://www.w3.org/2000/svg"><path opacity=".32" d="M14 4.787c-.047-2.234-.05-1.75-.004-2.447a.075.075 0 00-.07-.08c-3.307-.227-3.433-.253-3.689-.253-4.513 0-2.143-.075-8.167.282a.075.075 0 00-.07.08c.388 7.487.374 6.265.176 11.256a.075.075 0 00.057.076c.451.107.371.065 1.423.066l1.972-.216A1594.147 1594.147 0 008.367 14c3.18-.268 2.268-.204 4.32-.318l1.205.245c.046.01.09-.027.089-.074-.026-2.439.019-9.066.019-9.066zm-4.89-.178a1.66 1.66 0 00.038-.01l.857-.194c.44-.11.504-.137.88-.315.174.06.65.325.77.477.08.1.075.123.05.23l-.017.073v.006l-.19 1.484c-.186.006-.201-.008-.253-.056a.7.7 0 00-.095-.076 37.263 37.263 0 01-1.505-1.12l-.576-.465.004-.005a.081.081 0 00.016-.022l.02-.007zm1.336 7.47c-.017-.018-7.205-7.68-7.21-7.69l.627-.484 8.777 5.842c-.073.21-.102.449-.145.648-.154.703-.353 1.011-.663 1.68-.444.017-1.355.014-1.386.003zm-6.54-2.074c.082-.195.193-.509.286-.668.46.288 2.252 2.1 2.408 2.345-.086.032-.457.087-1.074.335-.39.156-.759.305-1.115.183-.036-.012-.13-.092-.27-.214a4.646 4.646 0 00-.625-.463c-.23-.137-.194-.108.39-1.518z"/></symbol><symbol viewBox="0 0 18 16" id="telegram" xmlns="http://www.w3.org/2000/svg"><path d="M17.66.22c-.307-.254-.79-.29-1.288-.095C15.846.33 1.526 6.332.943 6.577c-.106.036-1.033.374-.937 1.126.085.678.83.959.92.991l3.64 1.218c.242.786 1.133 3.684 1.33 4.303.123.386.323.893.674.998.307.116.614.01.812-.142l2.226-2.017 3.593 2.738.085.05c.244.105.478.158.701.158.173 0 .338-.032.496-.095.538-.216.754-.717.776-.774l2.684-13.63c.165-.73-.063-1.1-.283-1.281zM7.78 10.4l-1.23 3.2-1.229-4 9.416-6.8-6.96 7.6z"/></symbol><symbol viewBox="0 0 18 14" id="twitter" xmlns="http://www.w3.org/2000/svg"><path d="M18 1.652c-.674.286-1.35.502-2.1.575a3.86 3.86 0 001.649-1.94c-.75.43-1.5.717-2.323.863C14.476.432 13.5 0 12.45 0c-2.027 0-3.677 1.579-3.677 3.517 0 .289 0 .575.077.79C5.774 4.166 3.076 2.8 1.274.646.9 1.15.75 1.795.75 2.44c0 1.223.674 2.3 1.65 2.945-.601-.073-1.199-.216-1.65-.432v.073c0 1.722 1.274 3.157 2.924 3.446-.299.07-.598.143-.973.143-.225 0-.451 0-.677-.073.452 1.436 1.802 2.443 3.452 2.443a7.714 7.714 0 01-4.577 1.506c-.298 0-.6 0-.899-.07A10.852 10.852 0 005.625 14c6.826 0 10.5-5.385 10.5-10.051v-.432c.75-.502 1.35-1.147 1.875-1.865z"/></symbol><symbol viewBox="0 0 12 14" id="user" xmlns="http://www.w3.org/2000/svg"><path fill-rule="evenodd" clip-rule="evenodd" d="M8.5 4a2.5 2.5 0 11-5 0 2.5 2.5 0 015 0zm.06 3.073a4 4 0 10-5.122 0 6.004 6.004 0 00-3.431 5.142.75.75 0 001.498.07 4.5 4.5 0 018.99 0 .75.75 0 101.498-.07A6.005 6.005 0 008.56 7.073z"/></symbol><symbol viewBox="0 0 21 12" id="vk" xmlns="http://www.w3.org/2000/svg"><path d="M20.04 12l-2.798-.008s-.06.008-.158.008c-.225 0-.69-.06-1.237-.435-.983-.682-1.92-2.377-2.663-2.377a.437.437 0 00-.143.022c-.645.202-.84.847-.84 1.635 0 .277-.195.405-.72.405h-1.447c-1.62 0-3.188-.037-4.95-1.965C2.487 6.442.057 1.388.057 1.388s-.135-.293.007-.465C.2.764.515.75.635.75H3.68s.278.052.48.203c.173.127.263.36.263.36s.51.99 1.148 2.107c1.072 1.845 1.65 2.46 2.063 2.46a.408.408 0 00.202-.053c.615-.337.435-3.067.435-3.067s.008-.99-.315-1.425c-.247-.345-.72-.443-.93-.472C6.861.84 7.131.45 7.491.27 7.956.045 8.729 0 9.659 0h.45c.877.015.9.105 1.245.188 1.035.247.682 1.215.682 3.532 0 .743-.135 1.785.398 2.137a.3.3 0 00.158.038c.345 0 1.087-.442 2.272-2.445.66-1.14 1.17-2.272 1.17-2.272s.113-.203.285-.308c.165-.098.165-.097.383-.097h.022c.24 0 2.626-.023 3.15-.023h.06c.503 0 .96.007 1.043.315.12.465-.367 1.297-1.65 3.023-2.115 2.827-2.355 2.617-.6 4.252 1.68 1.56 2.025 2.318 2.085 2.415C21.51 11.91 20.04 12 20.04 12z"/></symbol></svg>